<svg width="167" height="167" viewBox="0 0 167 167" fill="none" xmlns="http://www.w3.org/2000/svg">
<path d="M138.284 114.36L143.18 113.676L138.284 114.36L140.925 133.259L121.842 133.334C117.999 133.35 114.513 135.59 112.903 139.079L104.907 156.406L88.8131 146.153C85.572 144.088 81.428 144.088 78.1869 146.153L62.0927 156.406L54.097 139.079C52.4868 135.59 49.0007 133.35 45.1577 133.334L26.0749 133.259L28.7162 114.36C29.2481 110.554 27.5266 106.784 24.3019 104.694L8.28909 94.3137L20.7288 79.8426C23.234 76.9283 23.8237 72.8266 22.2411 69.3246L14.3822 51.935L32.6709 46.4865C36.3539 45.3893 39.0676 42.2575 39.6295 38.4558L42.4198 19.5779L60.7508 24.882C64.4424 25.9501 68.4185 24.7826 70.9466 21.8882L83.5 7.51568L96.0534 21.8882C98.5815 24.7827 102.558 25.9501 106.249 24.882L124.58 19.5779L127.37 38.4558C127.932 42.2575 130.646 45.3893 134.329 46.4865L152.618 51.935L144.759 69.3246C143.176 72.8266 143.766 76.9284 146.271 79.8426L158.711 94.3137L142.698 104.694C139.473 106.784 137.752 110.554 138.284 114.36Z" stroke="black" stroke-width="9.88816"/>
<path d="M61.4379 86.3966L78.0281 102.851L108.906 62.0757" stroke="black" stroke-width="12.6349" stroke-linecap="round"/>
</svg>
