<svg width="117" height="236" viewBox="0 0 117 236" fill="none" xmlns="http://www.w3.org/2000/svg">
<path d="M0 3C0 1.34315 1.34315 0 3 0H114C115.657 0 117 1.34315 117 3V229.949C117 232.43 114.159 233.839 112.184 232.337L58.8635 191.78C57.7682 190.947 56.2465 190.966 55.1723 191.826L4.87504 232.097C2.91094 233.669 0 232.271 0 229.755V3Z" fill="black"/>
<path d="M13 15C13 13.3431 14.3431 12 16 12H101C102.657 12 104 13.3431 104 15V204.638C104 207.174 101.048 208.566 99.0914 206.952L59.2917 174.132C58.1613 173.2 56.5229 173.221 55.4165 174.181L17.9665 206.689C16.0243 208.375 13 206.995 13 204.423V15Z" fill="#BFBFBF"/>
</svg>
